<?xml version="1.0" encoding="utf-8"?>
<!-- Generator: Adobe Illustrator 16.0.0, SVG Export Plug-In . SVG Version: 6.00 Build 0)  -->
<!DOCTYPE svg PUBLIC "-//W3C//DTD SVG 1.1//EN" "http://www.w3.org/Graphics/SVG/1.1/DTD/svg11.dtd">
<svg version="1.1" id="Calque_1" xmlns="http://www.w3.org/2000/svg" xmlns:xlink="http://www.w3.org/1999/xlink" x="0px" y="0px"
	 width="219.118px" height="43.793px" viewBox="0 0 219.118 43.793" enable-background="new 0 0 219.118 43.793"
	 xml:space="preserve">
<g>
	<path fill="#0D2B88" d="M47.08,3.425v2.26h3.962V8.66H47.08v2.33h4.178v2.978h-7.692V0.448h7.692v2.977H47.08z"/>
	<path fill="#0D2B88" d="M64.506,4.984c-0.717-0.968-1.883-1.488-3.084-1.488c-2.152,0-3.604,1.649-3.604,3.748
		c0,2.133,1.47,3.675,3.658,3.675c1.147,0,2.295-0.556,3.03-1.435v4.214c-1.166,0.358-2.008,0.628-3.102,0.628
		c-1.883,0-3.676-0.717-5.074-1.991c-1.488-1.345-2.169-3.102-2.169-5.108c0-1.848,0.699-3.623,1.99-4.95
		c1.327-1.362,3.245-2.187,5.146-2.187c1.13,0,2.17,0.251,3.21,0.681V4.984z"/>
	<path fill="#0D2B88" d="M82.364,6.957c0,4.374-3.138,7.458-7.477,7.458c-4.339,0-7.477-3.084-7.477-7.458
		C67.411,2.868,70.997,0,74.888,0C78.778,0,82.364,2.868,82.364,6.957z M71.068,6.975c0,2.331,1.721,4.034,3.819,4.034
		c2.098,0,3.819-1.703,3.819-4.034c0-1.864-1.721-3.568-3.819-3.568C72.79,3.406,71.068,5.11,71.068,6.975z"/>
	<path fill="#0D2B88" d="M88.928,10.99h4.213v2.978h-7.728V0.448h3.514V10.99z"/>
	<path fill="#0D2B88" d="M99.219,3.425v2.26h3.962V8.66h-3.962v2.33h4.178v2.978h-7.692V0.448h7.692v2.977H99.219z"/>
	<path fill="#0D2B88" d="M114.544,0.448h3.514l6.437,8.266h0.036V0.448h3.514v13.52h-3.514l-6.438-8.283h-0.036v8.283h-3.514V0.448z
		"/>
	<path fill="#0D2B88" d="M146.03,6.957c0,4.374-3.139,7.458-7.479,7.458c-4.338,0-7.476-3.084-7.476-7.458
		c0-4.089,3.586-6.957,7.476-6.957C142.444,0,146.03,2.868,146.03,6.957z M134.734,6.975c0,2.331,1.721,4.034,3.818,4.034
		c2.098,0,3.82-1.703,3.82-4.034c0-1.864-1.723-3.568-3.82-3.568C136.455,3.406,134.734,5.11,134.734,6.975z"/>
	<path fill="#0D2B88" d="M160.806,0.448V8.05c0,1.739-0.072,3.46-1.418,4.771c-1.129,1.111-2.904,1.506-4.482,1.506
		c-1.576,0-3.352-0.395-4.48-1.506c-1.346-1.311-1.418-3.031-1.418-4.771V0.448h3.516v7.118c0,1.757,0.125,3.676,2.383,3.676
		c2.26,0,2.385-1.919,2.385-3.676V0.448H160.806z"/>
	<path fill="#0D2B88" d="M170.11,8.66l3.281-8.212h3.818l-5.773,13.52h-2.725l-5.684-13.52h3.818L170.11,8.66z"/>
	<path fill="#0D2B88" d="M183.022,3.425v2.26h3.961V8.66h-3.961v2.33h4.178v2.978h-7.693V0.448h7.693v2.977H183.022z"/>
	<path fill="#0D2B88" d="M194.298,10.99h4.213v2.978h-7.727V0.448h3.514V10.99z"/>
	<path fill="#0D2B88" d="M204.589,10.99h4.213v2.978h-7.729V0.448h3.516V10.99z"/>
	<path fill="#0D2B88" d="M214.88,3.425v2.26h3.961V8.66h-3.961v2.33h4.178v2.978h-7.693V0.448h7.693v2.977H214.88z"/>
</g>
<g>
	<path d="M43.565,19.699h2.144c1.706,0,3.094,0.227,4.437,1.373c1.298,1.117,1.887,2.643,1.887,4.332
		c0,1.66-0.604,3.125-1.856,4.242c-1.358,1.207-2.717,1.434-4.498,1.434h-2.113V19.699z M45.754,29.902
		c1.389,0,2.551-0.195,3.592-1.176c0.936-0.877,1.419-2.068,1.419-3.338c0-1.297-0.498-2.549-1.479-3.41
		c-1.041-0.92-2.188-1.102-3.532-1.102h-0.921v9.025H45.754z"/>
	<path d="M54.106,19.699h5.901v1.178h-4.633v3.381h4.497v1.178h-4.497v4.467h4.633v1.178h-5.901V19.699z"/>
	<path d="M68.69,29.902h3.139v1.178h-4.407V19.699h1.268V29.902z"/>
	<path d="M75.093,27.85l-1.374,3.23h-1.389l5.252-11.924l5.116,11.924h-1.404l-1.343-3.23H75.093z M77.553,22.115l-1.947,4.557
		h3.849L77.553,22.115z"/>
	<path d="M94.357,21.918c-0.453-0.785-0.996-1.236-1.962-1.236c-1.011,0-1.887,0.723-1.887,1.766c0,0.98,1.012,1.434,1.781,1.781
		l0.754,0.332c1.479,0.648,2.732,1.387,2.732,3.199c0,1.992-1.6,3.516-3.577,3.516c-1.826,0-3.184-1.176-3.546-2.941l1.238-0.348
		c0.166,1.162,1.056,2.113,2.279,2.113s2.339-0.938,2.339-2.221c0-1.326-1.042-1.779-2.098-2.264l-0.695-0.301
		c-1.328-0.604-2.475-1.283-2.475-2.914c0-1.766,1.494-2.896,3.185-2.896c1.268,0,2.339,0.648,2.943,1.766L94.357,21.918z"/>
	<path d="M99.174,26.477c0,0.844-0.03,1.811,0.498,2.535c0.499,0.695,1.464,1.088,2.294,1.088c0.814,0,1.706-0.379,2.233-1.012
		c0.604-0.725,0.559-1.721,0.559-2.611v-6.777h1.268v7.125c0,1.236-0.091,2.217-0.997,3.154c-0.785,0.846-1.917,1.297-3.063,1.297
		c-1.072,0-2.174-0.408-2.943-1.162c-0.996-0.951-1.117-1.99-1.117-3.289v-7.125h1.268V26.477z"/>
	<path d="M109.878,31.08h-1.268V19.699h1.268V31.08z"/>
	<path d="M117.65,21.918c-0.453-0.785-0.996-1.236-1.962-1.236c-1.012,0-1.887,0.723-1.887,1.766c0,0.98,1.011,1.434,1.781,1.781
		l0.755,0.332c1.479,0.648,2.732,1.387,2.732,3.199c0,1.992-1.6,3.516-3.577,3.516c-1.827,0-3.185-1.176-3.547-2.941l1.237-0.348
		c0.166,1.162,1.057,2.113,2.279,2.113c1.223,0,2.34-0.938,2.34-2.221c0-1.326-1.042-1.779-2.098-2.264l-0.694-0.301
		c-1.328-0.604-2.476-1.283-2.476-2.914c0-1.766,1.494-2.896,3.185-2.896c1.268,0,2.339,0.648,2.943,1.766L117.65,21.918z"/>
	<path d="M126.391,21.918c-0.453-0.785-0.996-1.236-1.962-1.236c-1.011,0-1.887,0.723-1.887,1.766c0,0.98,1.012,1.434,1.781,1.781
		l0.754,0.332c1.479,0.648,2.732,1.387,2.732,3.199c0,1.992-1.6,3.516-3.577,3.516c-1.826,0-3.185-1.176-3.546-2.941l1.238-0.348
		c0.166,1.162,1.056,2.113,2.279,2.113s2.339-0.938,2.339-2.221c0-1.326-1.042-1.779-2.098-2.264l-0.694-0.301
		c-1.328-0.604-2.475-1.283-2.475-2.914c0-1.766,1.495-2.896,3.185-2.896c1.268,0,2.339,0.648,2.943,1.766L126.391,21.918z"/>
	<path d="M129.971,19.699h5.901v1.178h-4.633v3.381h4.497v1.178h-4.497v4.467h4.633v1.178h-5.901V19.699z"/>
	<path d="M144.555,31.08h-1.268V19.699h1.644c2.159,0,4.167,0.574,4.167,3.141c0,1.75-1.102,2.988-2.854,3.139l3.623,5.102h-1.555
		l-3.441-4.996h-0.316V31.08z M144.555,24.967h0.393c1.434,0,2.882-0.271,2.882-2.037c0-1.871-1.373-2.053-2.898-2.053h-0.376
		V24.967z"/>
	<path d="M163.062,25.404c0,3.275-2.686,5.871-5.932,5.871c-3.244,0-5.932-2.596-5.932-5.871c0-3.26,2.688-5.9,5.932-5.9
		C160.377,19.504,163.062,22.145,163.062,25.404z M152.468,25.389c0,2.566,2.082,4.711,4.663,4.711c2.582,0,4.664-2.145,4.664-4.711
		c0-2.58-2.052-4.707-4.664-4.707C154.521,20.682,152.468,22.809,152.468,25.389z"/>
	<path d="M166.569,19.051l4.135,9.555l4.151-9.555l2.31,12.029h-1.299l-1.465-7.697h-0.029l-3.668,8.164l-3.652-8.164h-0.029
		l-1.465,7.697h-1.299L166.569,19.051z"/>
	<path d="M180.629,27.85l-1.375,3.23h-1.388l5.253-11.924l5.115,11.924h-1.402l-1.345-3.23H180.629z M183.089,22.115l-1.948,4.557
		h3.85L183.089,22.115z"/>
	<path d="M189.855,19.217l8.874,9.297v-8.814h1.269v11.893l-8.875-9.281v8.77h-1.268V19.217z"/>
	<path d="M202.677,19.699h2.143c1.705,0,3.094,0.227,4.438,1.373c1.298,1.117,1.887,2.643,1.887,4.332
		c0,1.66-0.604,3.125-1.856,4.242c-1.358,1.207-2.718,1.434-4.498,1.434h-2.112V19.699z M204.864,29.902
		c1.39,0,2.552-0.195,3.592-1.176c0.937-0.877,1.42-2.068,1.42-3.338c0-1.297-0.499-2.549-1.48-3.41
		c-1.04-0.92-2.188-1.102-3.531-1.102h-0.92v9.025H204.864z"/>
	<path d="M213.216,19.699h5.902v1.178h-4.634v3.381h4.497v1.178h-4.497v4.467h4.634v1.178h-5.902V19.699z"/>
</g>
<g>
	<path fill="none" stroke="#0D2B88" stroke-width="0.4232" stroke-miterlimit="3.8636" d="M28.039,41.242l-12.375,2.335L5.26,41.446
		c-0.044,0-1.503-0.364-1.591-0.364"/>
	<g>
		
			<line fill="none" stroke="#0D2B88" stroke-width="0.467" stroke-miterlimit="3.8636" x1="16.044" y1="0.367" x2="16.044" y2="20.637"/>
		<polygon fill="#0D2B88" stroke="#0D2B88" stroke-width="0.4232" stroke-miterlimit="3.8636" points="0.328,21.381 15.533,21.424 
			15.577,43.417 7.113,41.87 2.853,40.557 0.838,38.163 0.328,34.631 		"/>
		<path fill="none" stroke="#0D2B88" stroke-width="0.4232" stroke-miterlimit="3.8636" d="M3.889,41.154
			c-2.146-0.699-3.677-2.918-3.677-5.69V6.277c0-3.313,2.306-5.999,5.049-5.999h21.363c2.816,0,5.078,2.686,5.078,5.999v29.187
			c0,2.889-1.707,5.325-4.013,5.852"/>
		<path fill="#0D2B88" d="M3.924,4.017h9.517v4.067H9.046v2.398h3.942v4.067H9.046v2.627h4.394v4.067H3.924V4.017z"/>
		<g>
			
				<rect x="9.398" y="10.56" fill="#0D2B88" stroke="#0D2B88" stroke-width="0.3357" stroke-miterlimit="3.8636" width="6.314" height="3.884"/>
		</g>
		<g>
			
				<rect x="9.235" y="17.215" fill="#0D2B88" stroke="#0D2B88" stroke-width="0.3357" stroke-miterlimit="3.8636" width="6.494" height="3.884"/>
		</g>
		<g>
			
				<rect x="6.651" y="4.58" fill="#0D2B88" stroke="#0D2B88" stroke-width="0.3357" stroke-miterlimit="3.8636" width="2.871" height="15.015"/>
		</g>
		<polygon fill="#0D2B88" stroke="#0D2B88" stroke-width="0.4232" stroke-miterlimit="3.8636" points="16.175,0.454 16.087,19.586 
			16.117,21.045 31.629,21.045 31.629,20.023 31.643,15.062 31.629,5.357 31.161,3.709 29.819,1.665 28.55,0.833 27.353,0.498 
			26.229,0.454 		"/>
		<path fill="#FFFFFF" d="M15.749,4.02h4.424l3.718,10.372l0.045-0.045c-0.183-1.988-0.524-3.953-0.524-5.94V4.02h4.47v17.227h-4.47
			l-3.466-9.938l-0.046,0.046c0.115,1.622,0.32,3.222,0.32,4.844v5.049h-4.47V4.02z"/>
		<path fill="#0D2B88" d="M20.855,38.703h-5.211V20.989h5.087c4.572,0,7.878,1.222,7.878,5.897c0,1.949-0.93,3.688-3.022,4.44
			l3.925,7.376h-5.708l-2.918-7.376L20.855,38.703z M21.249,29.188c1.395,0,2.143-1.104,2.143-2.255
			c0-1.551-1.032-2.209-2.479-2.139v4.37L21.249,29.188z"/>
		<path fill="#FFFFFF" d="M4.739,32.859c0.82,0.933,2.254,1.865,3.776,1.865c0.819,0,1.756-0.378,1.756-1.109
			c0-0.4-0.175-0.689-0.468-0.934c-0.264-0.244-0.615-0.443-0.995-0.645c-1.171-0.688-2.195-1.33-2.957-2.131
			c-0.731-0.777-1.2-1.709-1.2-2.93c0-1.953,1.64-5.506,6.732-5.506c1.434,0,2.985,0.333,4.244,0.844v5.084
			c-0.702-0.845-2.136-1.799-3.512-1.799c-0.703,0-1.551,0.378-1.551,1.021c0,0.355,0.263,0.667,0.585,0.933
			c0.322,0.267,0.761,0.488,1.083,0.688c1.258,0.666,2.253,1.287,2.927,2.042c0.702,0.755,1.083,1.643,1.083,2.908
			c0,3.107-2.868,5.595-7.024,5.595c-1.522,0-3.074-0.244-4.479-0.688V32.859z"/>
		<g>
			
				<rect x="9.551" y="4.147" fill="#0D2B88" stroke="#0D2B88" stroke-width="0.3357" stroke-miterlimit="3.8636" width="6.063" height="3.885"/>
		</g>
	</g>
</g>
<g>
	<path d="M44.296,37.523v1.948h2.183v0.679h-2.183v3.252h-0.73v-6.558h2.983v0.679H44.296z"/>
	<path d="M47.357,41.368c0-1.2,0.948-2.166,2.148-2.166s2.148,0.966,2.148,2.166s-0.957,2.147-2.148,2.147
		C48.313,43.516,47.357,42.568,47.357,41.368z M48.053,41.359c0,0.835,0.591,1.513,1.452,1.513c0.861,0,1.453-0.678,1.453-1.513
		c0-0.827-0.591-1.514-1.453-1.514C48.644,39.846,48.053,40.532,48.053,41.359z"/>
	<path d="M53.305,39.811h0.018c0.287-0.392,0.661-0.608,1.166-0.608c1.13,0,1.392,0.817,1.392,1.774v2.426h-0.696v-2.304
		c0-0.662-0.052-1.253-0.861-1.253c-0.957,0-1.018,0.887-1.018,1.617v1.939h-0.696v-4.088h0.696V39.811z"/>
	<path d="M60.237,42.838H60.22c-0.339,0.443-0.853,0.678-1.409,0.678c-1.2,0-1.957-1.018-1.957-2.147
		c0-1.166,0.74-2.166,1.966-2.166c0.548,0,1.07,0.261,1.4,0.695h0.017v-3.67h0.696v7.175h-0.696V42.838z M57.567,41.315
		c0,0.8,0.47,1.557,1.339,1.557c0.896,0,1.366-0.722,1.366-1.548c0-0.817-0.513-1.479-1.375-1.479
		C58.089,39.846,57.567,40.55,57.567,41.315z"/>
	<path d="M62.569,41.507c0.008,0.757,0.548,1.365,1.339,1.365c0.591,0,0.974-0.356,1.244-0.843l0.591,0.339
		c-0.391,0.73-1.052,1.147-1.887,1.147c-1.218,0-2-0.93-2-2.104c0-1.209,0.705-2.209,1.983-2.209c1.313,0,2.009,1.087,1.939,2.305
		H62.569z M65.047,40.915c-0.096-0.592-0.591-1.069-1.2-1.069c-0.6,0-1.157,0.478-1.244,1.069H65.047z M64.708,37.262l-1.331,1.34
		l-0.435-0.243l1.035-1.427L64.708,37.262z"/>
	<path d="M67.082,41.507c0.009,0.757,0.548,1.365,1.339,1.365c0.592,0,0.974-0.356,1.244-0.843l0.591,0.339
		c-0.392,0.73-1.053,1.147-1.888,1.147c-1.217,0-2-0.93-2-2.104c0-1.209,0.705-2.209,1.983-2.209c1.313,0,2.009,1.087,1.939,2.305
		H67.082z M69.561,40.915c-0.096-0.592-0.591-1.069-1.2-1.069c-0.601,0-1.157,0.478-1.244,1.069H69.561z"/>
	<path d="M74.274,41.507c0.009,0.757,0.548,1.365,1.339,1.365c0.592,0,0.974-0.356,1.245-0.843l0.591,0.339
		c-0.392,0.73-1.053,1.147-1.887,1.147c-1.218,0-2-0.93-2-2.104c0-1.209,0.704-2.209,1.983-2.209c1.314,0,2.009,1.087,1.939,2.305
		H74.274z M76.752,40.915c-0.095-0.592-0.591-1.069-1.2-1.069c-0.6,0-1.157,0.478-1.244,1.069H76.752z"/>
	<path d="M79.135,39.811h0.018c0.287-0.392,0.661-0.608,1.166-0.608c1.13,0,1.392,0.817,1.392,1.774v2.426h-0.696v-2.304
		c0-0.662-0.052-1.253-0.861-1.253c-0.957,0-1.018,0.887-1.018,1.617v1.939H78.44v-4.088h0.695V39.811z"/>
	<path d="M86.423,37.523l0.383-0.679h1.436v6.558H87.51v-5.879H86.423z"/>
	<path d="M91.992,43.143l1.513-2.08l-0.018-0.017c-0.174,0.053-0.365,0.087-0.564,0.087c-1.201,0-2.123-0.975-2.123-2.166
		c0-1.243,1.026-2.235,2.262-2.235s2.262,0.992,2.262,2.235c0,0.592-0.271,1.105-0.609,1.574l-2.174,2.975L91.992,43.143z
		 M91.531,38.94c0,0.854,0.678,1.515,1.53,1.515c0.843,0,1.53-0.661,1.53-1.515c0-0.843-0.688-1.53-1.53-1.53
		C92.208,37.41,91.531,38.098,91.531,38.94z"/>
	<path d="M100.794,40.133c0,1.617-0.853,3.383-2.349,3.383s-2.348-1.766-2.348-3.383c0-1.349,0.687-3.401,2.348-3.401
		S100.794,38.784,100.794,40.133z M96.828,40.168c0.018,0.922,0.409,2.67,1.618,2.67s1.601-1.748,1.618-2.67
		c0.017-0.932-0.383-2.758-1.618-2.758S96.81,39.236,96.828,40.168z"/>
	<path d="M104.831,37.141l-1.513,2.035l0.018,0.018c0.174-0.062,0.374-0.096,0.574-0.096c1.191,0,2.121,0.983,2.121,2.166
		c0,1.252-1.025,2.252-2.261,2.252c-1.243,0-2.261-1.009-2.261-2.243c0-0.601,0.27-1.114,0.6-1.574l2.174-2.967L104.831,37.141z
		 M105.301,41.289c0-0.853-0.688-1.514-1.531-1.514c-0.853,0-1.53,0.661-1.53,1.514s0.678,1.549,1.53,1.549
		S105.301,42.142,105.301,41.289z"/>
</g>
</svg>
