<svg version="1.1"  xmlns="http://www.w3.org/2000/svg" xmlns:xlink="http://www.w3.org/1999/xlink" x="0px" y="0px" viewBox="-7.361 -2.696 71.5 71.48" enable-background="new -7.361 -2.696 71.5 71.48"
	 xml:space="preserve">
<path fill="#FFFFFF" d="M61.731,21.793L39.633-0.305c-3.539-3.54-9.744-3.094-13.815,0.978L-4.366,30.856
	c-2.775,2.774-3.623,6.561-2.538,11.271c0.013,0.042,5.239,16.297,5.25,20.17c4.61,0.561,20.383,5.849,20.406,5.854
	c4.977,1.336,8.962,0.555,11.846-2.329l30.185-30.185C64.852,31.565,65.286,25.348,61.731,21.793z M15.645,20.922l-2.647-2.647
	l15.21-15.21c2.71-2.71,6.849-3.163,9.034-0.979L48.07,12.915l-2.672,2.672L33.189,3.378L15.645,20.922z M2.704,44.803
	c-1.577-1.577-2.92-3.428-3.913-5.333l5.42-5.419c-0.123,1.811,0.392,4.253,1.972,5.833c0.841,0.841,2.202,1.434,2.969,0.666
	c0.408-0.408,0.523-0.892,0.474-1.447c-0.022-0.529-0.18-1.097-0.364-1.688c-0.503-1.929-0.891-3.653-0.852-5.266
	c0.045-1.56,0.529-3.01,1.789-4.269c2.022-2.022,7.388-4.005,12.65,1.257c1.495,1.495,2.75,3.432,3.527,5.271l-5.26,5.26
	c0.147-1.602-0.356-4.077-1.781-5.501c-0.722-0.722-1.987-1.211-2.652-0.546c-0.371,0.371-0.414,0.958-0.36,1.567
	c0.065,0.612,0.28,1.295,0.414,1.837c0.608,1.983,0.994,3.659,0.912,5.137c-0.058,1.504-0.585,2.821-1.891,4.126
	C12.537,49.505,7.015,49.113,2.704,44.803z M19.635,64.881c0.023,0.013-14.647-4.196-18.507-5.297l-0.006-0.045l8.244-8.244
	l5.46,5.46l7.655-7.59L17.88,59.809l5.603,5.603C22.345,65.445,21.064,65.27,19.635,64.881z M24.753,46.954l4.512-4.512
	c1.571,1.41,1.967,3.16,0.362,4.764c-1.195,1.195-3.109,1.562-4.556,0.116L24.753,46.954z M28.206,63.429
	c-1.177,1.176-2.597,1.808-4.323,1.939l3.458-11.343c2.946,1.384,5.712,0.553,7.729-1.466c4.114-4.113,3.771-7.805,0.803-11.281
	l-0.174-0.174l6.489-13.644l-0.09-0.001c-1.568,1.789-3.008,3.657-4.687,5.335l-4.986,4.986l-4.623-4.622l3.976-3.975l-6.41-6.41
	l2.715-2.715l6.41,6.41l4.209-4.209l-6.41-6.41l2.48-2.48l6.41,6.41l4.199-4.199l4.582,4.582l-6.88,14.57l0.091-0.009
	c1.862-2.242,3.537-4.631,5.595-6.688l4.533-4.534l4.632,4.632L40.346,45.723l2.784,2.784L28.208,63.431L28.206,63.429z"/>
</svg>
