<svg version="1.1"  xmlns="http://www.w3.org/2000/svg" xmlns:xlink="http://www.w3.org/1999/xlink" x="0px" y="0px" viewBox="0 0 49.447 73.461" style="enable-background:new 0 0 49.447 73.461;"
	 xml:space="preserve">
<path fill="#0055a0" d="M40.33,0H9.078C4.072,0,0,4.703,0,10.461v42.686c0,3.924,2.078,7.2,6.176,9.764
	c0.038,0.021,15.227,7.82,17.973,10.55c3.656-2.864,18.549-10.278,18.57-10.289c4.463-2.574,6.729-5.945,6.729-10.024V10.461
	C49.447,4.703,45.357,0,40.33,0z M7.126,31.972H3.382v-21.51c0-3.833,2.606-7.08,5.696-7.08h15.314v3.779H7.126V31.972z
	 M14.861,58.009c-2.23,0-4.488-0.359-6.537-1.004V49.34c1.193,1.367,3.285,2.73,5.52,2.73c1.189,0,2.57-0.543,2.57-1.628
	c0-0.577-0.26-1-0.689-1.359c-0.389-0.359-0.902-0.648-1.451-0.937c-1.72-1.008-3.213-1.952-4.326-3.121
	c-1.07-1.134-1.754-2.501-1.754-4.283c0-2.86,2.392-8.056,9.834-8.056c2.113,0,4.371,0.482,6.221,1.233v7.438
	c-1.029-1.236-3.135-2.631-5.15-2.631c-1.021,0-2.261,0.55-2.261,1.49c0,0.524,0.384,0.969,0.853,1.363
	c0.479,0.387,1.113,0.718,1.592,1.007c1.832,0.973,3.29,1.885,4.276,2.987c1.024,1.105,1.581,2.409,1.581,4.255
	C25.139,54.381,20.958,58.009,14.861,58.009z M41.031,60.234c0.025-0.007-13.324,7.39-16.832,9.341l-0.036-0.027V57.889h7.722
	L31.93,47.11l4.273,10.778h7.924C43.346,58.717,42.316,59.498,41.031,60.234z M31.973,43.94v-6.382
	c2.109-0.113,3.625,0.845,3.625,3.113c0,1.69-1.094,3.304-3.139,3.304L31.973,43.94z M46.064,53.147
	c0,1.663-0.557,3.114-1.684,4.428L38.803,47.11c3.062-1.105,4.43-3.648,4.43-6.502c0-5.818-2.852-8.186-7.41-8.545h-0.246
	l-5.059-14.237l-0.064,0.063c0.156,2.374,0.459,4.713,0.459,7.087v7.052h-6.537v-5.622h-9.066v-3.839h9.066v-5.953h-9.066v-3.508
	h9.066V7.168h6.48l5.438,15.167l0.057-0.07c-0.268-2.902-0.773-5.776-0.773-8.686V7.168h6.551v24.874h3.938V53.147z"/>
</svg>
